<svg width="24" height="24" viewBox="0 0 24 24" fill="none" xmlns="http://www.w3.org/2000/svg">
<g clip-path="url(#clip0_6300_3980)">
<path d="M19.3502 23.9969C18.1889 23.9969 16.9596 23.711 15.6876 23.4136C14.3802 23.1089 13.0382 22.7927 11.7099 22.7927C10.3805 22.7927 9.07512 23.1162 7.81251 23.4292C5.21738 24.0741 2.76834 24.6845 0.673033 22.1155L0.521729 21.8963L0.561381 21.6459C1.14677 17.7464 3.14295 14.6087 6.17947 12.816L6.56138 12.5906L6.87025 12.9172C7.52316 13.6269 8.31587 14.1938 9.19851 14.5822C10.0811 14.9706 11.0346 15.1722 11.9989 15.1743C13.9388 15.1743 15.793 14.3583 17.1266 12.9172L17.4302 12.5906L17.8174 12.816C20.857 14.6139 22.8532 17.7496 23.4386 21.6449L23.4782 21.913L23.3134 22.1155C22.8512 22.7229 22.2502 23.2108 21.5606 23.5381C20.8711 23.8655 20.1131 24.0228 19.3502 23.9969ZM11.7224 22.271C13.1092 22.271 14.4845 22.5923 15.8139 22.9054C18.6021 23.5576 21.0115 24.1221 22.9189 21.7816L22.9367 21.7607V21.7357C22.3742 17.9896 20.4678 14.9937 17.5669 13.2783L17.5294 13.2574L17.5012 13.2887C16.8004 14.0462 15.9509 14.651 15.0058 15.0654C14.0607 15.4797 13.0403 15.6948 12.0083 15.697C10.9763 15.6951 9.95574 15.4802 9.01046 15.066C8.06517 14.6518 7.21546 14.0471 6.51442 13.2897L6.48312 13.2574L6.4466 13.2783C3.53008 14.9937 1.6226 17.9948 1.06225 21.7357V21.7628L1.08103 21.7837C2.96764 24.0981 5.16208 23.5523 7.70503 22.921C8.98434 22.6028 10.3137 22.271 11.7224 22.271ZM11.9969 14.1694C8.17147 14.1694 5.07025 10.9972 5.07025 7.08417C5.07025 3.17113 8.17147 0 11.9969 0C15.8233 0 18.9245 3.17217 18.9245 7.08522C18.9193 10.9962 15.8212 14.1652 11.9969 14.1704V14.1694ZM11.9969 0.52487C9.40173 0.52487 7.06121 2.12348 6.0699 4.5767C5.07547 7.02887 5.62538 9.85252 7.46086 11.7287C8.34713 12.6434 9.48935 13.2686 10.7375 13.5223C11.9856 13.7759 13.2812 13.6461 14.4542 13.1499C16.8522 12.1336 18.4153 9.73983 18.4142 7.08522C18.4111 3.46122 15.5405 0.523826 11.9969 0.518609V0.52487Z" fill="black"/>
</g>
<defs>
<clipPath id="clip0_6300_3980">
<rect width="24" height="24" fill="white"/>
</clipPath>
</defs>
</svg>
