<svg width="24" height="24" viewBox="0 0 24 24" fill="none" xmlns="http://www.w3.org/2000/svg">
<path d="M8.72516 0C3.91277 0 0 3.90735 0 8.71355C0 13.5197 3.91277 17.4271 8.72516 17.4271C11.0222 17.4271 13.1032 16.529 14.6555 15.1014L23.4735 23.9071C23.5355 23.969 23.6284 24 23.6903 24C23.7523 24 23.8452 23.969 23.9071 23.9071C24.031 23.7832 24.031 23.5966 23.9071 23.4735L15.0898 14.6346C16.5492 13.0839 17.4186 11.0067 17.4186 8.712C17.4503 3.90658 13.5375 0 8.72516 0ZM14.5308 14.3566C14.4999 14.3566 14.4689 14.3876 14.4379 14.4186C14.4062 14.4495 14.4062 14.4805 14.376 14.5115C12.867 15.9889 10.837 16.813 8.72516 16.8054C4.25342 16.8054 0.620903 13.1783 0.620903 8.71355C0.620903 4.248 4.25342 0.619355 8.72516 0.619355C13.1954 0.619355 16.8294 4.24645 16.8294 8.71277C16.8347 10.8226 16.0089 12.8496 14.5308 14.3551V14.3566Z" fill="black"/>
<path fill-rule="evenodd" clip-rule="evenodd" d="M8.06091 2.32257C7.86891 2.32257 7.74194 2.44954 7.74194 2.64154C7.74194 2.83276 7.86891 2.95973 8.06091 2.95973C11.7879 2.95973 14.8467 5.98683 14.8467 9.74554C14.8467 9.93754 14.9737 10.0645 15.1649 10.0645C15.3569 10.0645 15.4839 9.93754 15.4839 9.74554C15.4823 5.66786 12.1378 2.32257 8.06091 2.32257Z" fill="black"/>
</svg>
